# xmcd
#
# Track frame offsets:
#	150
#	14332
#	31202
#	47522
#	63322
#	80742
#	92510
#	106870
#	120117
#	137587
#	150557
#
# Disc length: 2214 seconds
#
# Revision: 1
# Processed by: cddbd v1.5.2PL0 Copyright (c) Steve Scherf et al.
# Submitted via: audiograbber 1.83.01
#
DISCID=7708a40b
DTITLE=Brian Dunn - A Page In Time
DYEAR=2000
DGENRE=Country
TTITLE0=Don´t Tell Me Baby
TTITLE1=Just How Wrong
TTITLE2=Each Time That You Call
TTITLE3=Hypnotized
TTITLE4=I Adore You So
TTITLE5=A Page In Time
TTITLE6=My Suzanne
TTITLE7=Losing You
TTITLE8=Nothing Seems Real
TTITLE9=Still The Crickets Chirp On
TTITLE10=Hey Boys
EXTD=
EXTT0=
EXTT1=
EXTT2=
EXTT3=
EXTT4=
EXTT5=
EXTT6=
EXTT7=
EXTT8=
EXTT9=
EXTT10=
PLAYORDER=
